<svg width="30" height="27" viewBox="0 0 30 27" fill="none" xmlns="http://www.w3.org/2000/svg">
<path d="M27.5467 2.898C25.9949 1.32132 23.8206 0.424206 21.5425 0.42088C19.2626 0.423375 17.086 1.32001 15.5319 2.89699L15.0022 3.42608L14.4725 2.89699C11.3888 -0.240522 6.19822 -0.420704 2.87929 2.49446C2.73222 2.62369 2.59018 2.75791 2.45348 2.89699C-0.817827 6.23257 -0.817827 11.3875 2.45348 14.7231L14.2238 26.457C14.631 26.8634 15.3097 26.8808 15.7396 26.4959C15.7536 26.4833 15.7673 26.4703 15.7806 26.457L27.5467 14.7231C30.8178 11.3879 30.8178 6.23322 27.5467 2.898ZM25.9952 13.3275H25.9942L15.0022 24.287L4.00922 13.3275C1.51013 10.7788 1.51013 6.84034 4.00922 4.29166C6.2787 1.96639 10.1126 1.82059 12.5723 3.96598C12.6918 4.07014 12.8067 4.17876 12.9169 4.29166L14.2238 5.5951C14.6545 5.99965 15.3499 5.99965 15.7806 5.5951L17.0876 4.29267C19.3571 1.9674 23.191 1.8216 25.6507 3.96698C25.7702 4.07115 25.8851 4.17977 25.9952 4.29267C28.5161 6.84539 28.5345 10.791 25.9952 13.3275Z" fill="#24374F"/>
</svg>
